# xmcd
#
# Track frame offsets:
#	150
#	135246
#	164869
#	263910
#	284570
#
# Disc length: 4186 seconds
#
# Revision: 1
# Processed by: cddbd v1.5.2PL0 Copyright (c) Steve Scherf et al.
# Submitted via: audiograbber 1.83.01
#
DISCID=4a105805
DTITLE=Grateful Dead - 72-04-29A Musikhalle, Hamburg, Germany
DYEAR=1900
DGENRE=
TTITLE0=Dark Star
TTITLE1=Sugar Magnolia
TTITLE2=Caution > Who Do You Love
TTITLE3=One More Saturday Night
TTITLE4=Uncle John's Band
EXTD=
EXTT0=
EXTT1=
EXTT2=
EXTT3=
EXTT4=
PLAYORDER=
